HIERARCHY
ROOT Hips
{
  OFFSET 5.84602e-005 68.8428 3.50346
  CHANNELS 6 Xposition Yposition Zposition Zrotation Xrotation Yrotation
  JOINT Spine
  {
    OFFSET 0 8.597 -4.6522
    CHANNELS 3 Zrotation Xrotation Yrotation
    JOINT Spine1
    {
      OFFSET 0 7.8454 0.4098
      CHANNELS 3 Zrotation Xrotation Yrotation
      JOINT Spine2
      {
        OFFSET 0 9.7078 -2.1609
        CHANNELS 3 Zrotation Xrotation Yrotation
        JOINT Neck
        {
          OFFSET 0 21.8761 -0.4549
          CHANNELS 3 Zrotation Xrotation Yrotation
          JOINT Head
          {
            OFFSET 0 12.3537 3.3602
            CHANNELS 3 Zrotation Xrotation Yrotation
            End Site
            {
              OFFSET 0.0001 18.9506 0.5657
            }
          }
        }
        JOINT LeftShoulder
        {
          OFFSET 2.2086 21.1115 7.2329
          CHANNELS 3 Zrotation Xrotation Yrotation
          JOINT LeftArm
          {
            OFFSET 13.1193 3.0282 -4.8998
            CHANNELS 3 Zrotation Xrotation Yrotation
            JOINT LeftForeArm
            {
              OFFSET 27.4081 -0.0973053 -0.2375
              CHANNELS 3 Zrotation Xrotation Yrotation
              JOINT LeftHand
              {
                OFFSET 22.8641 0.0662994 -0.1369
                CHANNELS 3 Zrotation Xrotation Yrotation
                JOINT LeftHandIndex1
                {
                  OFFSET 8.8614 0.775009 2.4612
                  CHANNELS 3 Zrotation Xrotation Yrotation
                  JOINT LeftHandIndex2
                  {
                    OFFSET 3.3146 -0.808304 0.5841
                    CHANNELS 3 Zrotation Xrotation Yrotation
                    JOINT LeftHandIndex3
                    {
                      OFFSET 2.2628 -0.552002 0.3989
                      CHANNELS 3 Zrotation Xrotation Yrotation
                      End Site
                      {
                        OFFSET 1.6102 -0.4807 0.2612
                      }
                    }
                  }
                }
                JOINT LeftHandMiddle1
                {
                  OFFSET 8.9937 0.895004 0.2143
                  CHANNELS 3 Zrotation Xrotation Yrotation
                  JOINT LeftHandMiddle2
                  {
                    OFFSET 4.0984 0.0113983 -0.0242
                    CHANNELS 3 Zrotation Xrotation Yrotation
                    JOINT LeftHandMiddle3
                    {
                      OFFSET 2.2716 0.00689697 -0.0138001
                      CHANNELS 3 Zrotation Xrotation Yrotation
                      End Site
                      {
                        OFFSET 2.0404 -0.1441 0.0027
                      }
                    }
                  }
                }
                JOINT LeftHandRing1
                {
                  OFFSET 8.5234 0.597198 -2.0164
                  CHANNELS 3 Zrotation Xrotation Yrotation
                  JOINT LeftHandRing2
                  {
                    OFFSET 3.7188 -0.188293 -0.2328
                    CHANNELS 3 Zrotation Xrotation Yrotation
                    JOINT LeftHandRing3
                    {
                      OFFSET 2.1191 -0.106598 -0.1332
                      CHANNELS 3 Zrotation Xrotation Yrotation
                      End Site
                      {
                        OFFSET 1.8737 -0.2304 -0.0886
                      }
                    }
                  }
                }
                JOINT LeftHandPinky1
                {
                  OFFSET 7.9094 -0.601089 -3.4825
                  CHANNELS 3 Zrotation Xrotation Yrotation
                  JOINT LeftHandPinky2
                  {
                    OFFSET 2.2874 -0.477005 -0.6314
                    CHANNELS 3 Zrotation Xrotation Yrotation
                    JOINT LeftHandPinky3
                    {
                      OFFSET 1.6774 -0.349396 -0.4633
                      CHANNELS 3 Zrotation Xrotation Yrotation
                      End Site
                      {
                        OFFSET 1.4888 -0.4091 -0.3416
                      }
                    }
                  }
                }
                JOINT LeftHandThumb1
                {
                  OFFSET 1.833 -1.3875 1.3896
                  CHANNELS 3 Zrotation Xrotation Yrotation
                  JOINT LeftHandThumb2
                  {
                    OFFSET 3.4129 -1.121 2.5732
                    CHANNELS 3 Zrotation Xrotation Yrotation
                    JOINT LeftHandThumb3
                    {
                      OFFSET 2.2474 -0.804199 1.6192
                      CHANNELS 3 Zrotation Xrotation Yrotation
                      End Site
                      {
                        OFFSET 1.6527 -0.5689 1.1317
                      }
                    }
                  }
                }
              }
            }
          }
        }
        JOINT RightShoulder
        {
          OFFSET -2.2086 21.1115 7.2329
          CHANNELS 3 Zrotation Xrotation Yrotation
          JOINT RightArm
          {
            OFFSET -13.1216 3.0287 -4.9007
            CHANNELS 3 Zrotation Xrotation Yrotation
            JOINT RightForeArm
            {
              OFFSET -27.4081 -0.0973053 -0.2375
              CHANNELS 3 Zrotation Xrotation Yrotation
              JOINT RightHand
              {
                OFFSET -22.8641 0.0664063 -0.1369
                CHANNELS 3 Zrotation Xrotation Yrotation
                JOINT RightHandIndex1
                {
                  OFFSET -8.8614 0.774994 2.4612
                  CHANNELS 3 Zrotation Xrotation Yrotation
                  JOINT RightHandIndex2
                  {
                    OFFSET -3.3146 -0.808304 0.5841
                    CHANNELS 3 Zrotation Xrotation Yrotation
                    JOINT RightHandIndex3
                    {
                      OFFSET -2.2628 -0.552002 0.3989
                      CHANNELS 3 Zrotation Xrotation Yrotation
                      End Site
                      {
                        OFFSET -1.6102 -0.4807 0.2612
                      }
                    }
                  }
                }
                JOINT RightHandMiddle1
                {
                  OFFSET -8.9937 0.894989 0.2143
                  CHANNELS 3 Zrotation Xrotation Yrotation
                  JOINT RightHandMiddle2
                  {
                    OFFSET -4.0984 0.0113983 -0.0242
                    CHANNELS 3 Zrotation Xrotation Yrotation
                    JOINT RightHandMiddle3
                    {
                      OFFSET -2.2716 0.00691223 -0.0138001
                      CHANNELS 3 Zrotation Xrotation Yrotation
                      End Site
                      {
                        OFFSET -2.0404 -0.1441 0.0027
                      }
                    }
                  }
                }
                JOINT RightHandRing1
                {
                  OFFSET -8.5234 0.597198 -2.0164
                  CHANNELS 3 Zrotation Xrotation Yrotation
                  JOINT RightHandRing2
                  {
                    OFFSET -3.7188 -0.188309 -0.2328
                    CHANNELS 3 Zrotation Xrotation Yrotation
                    JOINT RightHandRing3
                    {
                      OFFSET -2.1191 -0.106598 -0.1332
                      CHANNELS 3 Zrotation Xrotation Yrotation
                      End Site
                      {
                        OFFSET -1.8737 -0.2304 -0.0886
                      }
                    }
                  }
                }
                JOINT RightHandPinky1
                {
                  OFFSET -7.9094 -0.601105 -3.4825
                  CHANNELS 3 Zrotation Xrotation Yrotation
                  JOINT RightHandPinky2
                  {
                    OFFSET -2.2874 -0.477005 -0.6314
                    CHANNELS 3 Zrotation Xrotation Yrotation
                    JOINT RightHandPinky3
                    {
                      OFFSET -1.6774 -0.349396 -0.4633
                      CHANNELS 3 Zrotation Xrotation Yrotation
                      End Site
                      {
                        OFFSET -1.4888 -0.4091 -0.3416
                      }
                    }
                  }
                }
                JOINT RightHandThumb1
                {
                  OFFSET -1.833 -1.38751 1.3896
                  CHANNELS 3 Zrotation Xrotation Yrotation
                  JOINT RightHandThumb2
                  {
                    OFFSET -3.41299 -1.12099 2.5732
                    CHANNELS 3 Zrotation Xrotation Yrotation
                    JOINT RightHandThumb3
                    {
                      OFFSET -2.24741 -0.804108 1.6192
                      CHANNELS 3 Zrotation Xrotation Yrotation
                      End Site
                      {
                        OFFSET -1.6527 -0.5689 1.1317
                      }
                    }
                  }
                }
              }
            }
          }
        }
      }
    }
  }
  JOINT RightUpLeg
  {
    OFFSET -9.1966 3.8861 -0.7581
    CHANNELS 3 Zrotation Xrotation Yrotation
    JOINT RightLeg
    {
      OFFSET -0.7359 -41.0265 0
      CHANNELS 3 Zrotation Xrotation Yrotation
      JOINT RightFoot
      {
        OFFSET 0 -40.2855 0
        CHANNELS 3 Zrotation Xrotation Yrotation
        JOINT RightToeBase
        {
          OFFSET 0 -5.6122 11.7359
          CHANNELS 3 Zrotation Xrotation Yrotation
          End Site
          {
            OFFSET 0 0 7.8731
          }
        }
      }
    }
  }
  JOINT LeftUpLeg
  {
    OFFSET 9.1965 3.8864 -0.7581
    CHANNELS 3 Zrotation Xrotation Yrotation
    JOINT LeftLeg
    {
      OFFSET 0.7359 -41.0268 0
      CHANNELS 3 Zrotation Xrotation Yrotation
      JOINT LeftFoot
      {
        OFFSET 0 -40.2855 0
        CHANNELS 3 Zrotation Xrotation Yrotation
        JOINT LeftToeBase
        {
          OFFSET 0 -5.6122 11.7359
          CHANNELS 3 Zrotation Xrotation Yrotation
          End Site
          {
            OFFSET 0 0 7.8731
          }
        }
      }
    }
  }
}
MOTION
Frames:	4
Frame Time:	0.0333333
39.739 5.29554 28.4949 0 70.9971 -0 -0.323988 3.80841 -0.046821 -0.647001 7.61703 -0.0722429 -0.647001 7.61704 -0.0722426 -1.86946e-006 -28.757 -3.79128e-007 -0.0603927 -22.9126 -0.0250686 -6.20202 -5.52592 3.48258 -79.644 -7.57126 -63.4909 49.406 -25.3943 -110.188 -7.40855 4.7024 2.688 -5.70228e-007 -6.18512e-007 1.12021e-007 -1.14046e-006 -1.23702e-006 2.24042e-007 -5.70228e-007 -6.18512e-007 1.12021e-007 -5.70228e-007 -6.18512e-007 1.12021e-007 -0.0145908 -9.00356e-005 -2.60609e-006 -5.70216e-007 -6.18526e-007 1.11943e-007 -5.70228e-007 -6.18512e-007 1.12021e-007 -0.0187763 -0.00117837 5.46705e-005 -5.70212e-007 -6.18529e-007 1.11926e-007 -5.70228e-007 -6.18512e-007 1.12021e-007 -0.0122374 -0.00323728 0.000681268 -5.70218e-007 -6.18518e-007 1.11971e-007 -5.70228e-007 -6.18512e-007 1.12021e-007 -1.14046e-006 -1.23702e-006 2.24042e-007 -5.70228e-007 -6.18512e-007 1.12021e-007 6.38409 -5.62799 -3.63763 79.6342 -7.56298 63.4438 -49.4135 -25.3858 110.161 7.50608 4.60698 -2.61095 -1.18913e-006 7.95044e-008 1.93281e-007 7.95045e-008 1.18913e-006 1.24527e-008 -7.95045e-008 -1.18913e-006 -1.24527e-008 -1.18913e-006 7.95044e-008 1.93281e-007 0.0150017 -9.16612e-005 3.15793e-006 -7.95298e-008 -1.18913e-006 -1.22969e-008 -1.18913e-006 7.95044e-008 1.93281e-007 0.0190011 -0.00119065 -6.02789e-005 -1.85005e-008 -3.57116e-007 6.48543e-007 -1.18913e-006 7.95044e-008 1.93281e-007 0.012261 -0.00324434 -0.000667246 -1.39979e-007 -2.02092e-006 -6.73115e-007 -1.18913e-006 7.95044e-008 1.93281e-007 7.95045e-008 1.18913e-006 1.24527e-008 -7.95045e-008 -1.18913e-006 -1.24527e-008 -101.729 -33.1352 -88.071 176.729 45.1543 177.278 -7.16677 12.6442 -3.65562 -6.3028e-007 -7.9869e-007 -1.31096e-006 101.725 -33.1409 88.0675 -176.731 45.1539 -177.281 7.16419 12.643 3.65247 1.7435e-007 3.42065e-006 2.86093e-007 
39.739 5.29554 28.529 0 70.9971 -0 -0.323988 3.80841 -0.046821 -0.647001 7.61703 -0.0722429 -0.647001 7.61704 -0.0722426 -2.32984e-006 -28.5067 -6.0826e-007 -0.0603754 -22.8826 -0.0250293 -6.30533 -5.24778 3.29417 -79.6082 -7.66954 -63.493 49.406 -25.3943 -110.188 -7.39002 4.83434 2.54701 -1.14012e-006 -1.23738e-006 2.22191e-007 -5.70062e-007 -6.18692e-007 1.11096e-007 -5.70062e-007 -6.18692e-007 1.11096e-007 -1.14012e-006 -1.23738e-006 2.22191e-007 -0.0146102 -8.8554e-005 -9.12867e-006 -5.7005e-007 -6.18706e-007 1.11017e-007 -1.14012e-006 -1.23738e-006 2.22191e-007 -0.0187593 -0.00117478 6.98021e-005 -1.10226e-006 -5.00753e-007 -2.01096e-007 -1.14012e-006 -1.23738e-006 2.22191e-007 -0.0122439 -0.00323945 0.000672239 -5.70052e-007 -6.18698e-007 1.11045e-007 -1.14012e-006 -1.23738e-006 2.22191e-007 -5.70062e-007 -6.18692e-007 1.11096e-007 -5.70062e-007 -6.18692e-007 1.11096e-007 6.47813 -5.34429 -3.44153 79.5987 -7.66196 63.4482 -49.4135 -25.3858 110.161 7.48227 4.74404 -2.47434 1.10924e-006 -1.269e-006 -2.03881e-007 4.04211e-006 -2.06327e-006 -6.92362e-007 -7.98806e-008 -1.18912e-006 -1.06101e-008 1.10924e-006 -1.269e-006 -2.03881e-007 0.0149914 -9.4419e-005 4.79449e-006 -7.9906e-008 -1.18912e-006 -1.04545e-008 1.10924e-006 -1.269e-006 -2.03881e-007 0.0189928 -0.00119007 -5.69211e-005 -7.99122e-008 -1.18912e-006 -1.04121e-008 1.10924e-006 -1.269e-006 -2.03881e-007 0.012279 -0.00325117 -0.000680733 -1.55849e-007 -2.02099e-006 -6.70594e-007 1.10924e-006 -1.269e-006 -2.03881e-007 4.04211e-006 -2.06327e-006 -6.92362e-007 -7.98806e-008 -1.18912e-006 -1.06101e-008 -101.729 -33.1352 -88.071 176.729 45.1543 177.278 -7.16676 12.6442 -3.65562 2.39822e-006 -2.71039e-006 -3.38574e-007 101.725 -33.1408 88.0676 -176.731 45.1539 -177.281 7.16424 12.6431 3.65244 7.98248e-006 5.13116e-006 -5.15556e-006 
39.739 5.29554 28.563 0 70.9971 -0 -0.323988 3.80841 -0.046821 -0.647001 7.61703 -0.0722429 -0.647001 7.61704 -0.0722426 -2.25448e-006 -28.2565 -5.71025e-007 -0.0603575 -22.8526 -0.0249903 -6.40768 -4.96934 3.10635 -79.5724 -7.76783 -63.495 49.406 -25.3943 -110.188 -7.37115 4.96624 2.40596 -5.45941e-007 1.17809e-007 -3.12194e-007 2.37753e-006 9.79718e-008 -4.10211e-007 1.13978e-006 1.23775e-006 -2.20345e-007 -5.45941e-007 1.17809e-007 -3.12194e-007 -0.014614 -8.845e-005 -3.73999e-006 1.13975e-006 1.23778e-006 -2.20188e-007 -5.45941e-007 1.17809e-007 -3.12194e-007 -0.01874 -0.0011707 5.48562e-005 5.92194e-007 1.35554e-006 -5.32319e-007 -5.45941e-007 1.17809e-007 -3.12194e-007 -0.0122935 -0.00325368 0.000681111 1.13976e-006 1.23776e-006 -2.20244e-007 -5.45941e-007 1.17809e-007 -3.12194e-007 2.37753e-006 9.79718e-008 -4.10211e-007 1.13978e-006 1.23775e-006 -2.20345e-007 6.57114 -5.06033 -3.24599 79.5632 -7.76091 63.4525 -49.4135 -25.3859 110.161 7.45813 4.88104 -2.33761 -2.37822e-006 1.6053e-007 3.86529e-007 -1.74354e-006 7.14954e-007 2.94281e-007 -1.18911e-006 8.02652e-008 1.93265e-007 -2.37822e-006 1.6053e-007 3.86529e-007 0.014991 -9.09681e-005 3.45547e-007 -1.18911e-006 8.02905e-008 1.93255e-007 -2.37822e-006 1.6053e-007 3.86529e-007 0.0189878 -0.00119242 -5.87806e-005 -1.18911e-006 8.02967e-008 1.93264e-007 -2.37822e-006 1.6053e-007 3.86529e-007 0.0122391 -0.00323917 -0.000668955 -1.18911e-006 8.02792e-008 1.9329e-007 -2.37822e-006 1.6053e-007 3.86529e-007 -1.74354e-006 7.14954e-007 2.94281e-007 -1.18911e-006 8.02652e-008 1.93265e-007 -101.729 -33.1352 -88.071 176.729 45.1543 177.278 -7.16677 12.6442 -3.65562 -6.3028e-007 -7.9869e-007 -1.31096e-006 101.725 -33.1409 88.0675 -176.731 45.1539 -177.281 7.16419 12.643 3.65247 2.9037e-006 -8.44454e-006 -5.21781e-007 
39.739 5.29554 28.597 0 70.9971 -0 -0.323988 3.80841 -0.046821 -0.647001 7.61703 -0.0722429 -0.647001 7.61704 -0.0722426 -1.39047e-006 -28.0064 -2.06663e-007 -0.0603391 -22.8226 -0.0249524 -6.50907 -4.69055 2.91912 -79.5366 -7.86611 -63.4969 49.406 -25.3943 -110.188 -7.35196 5.09808 2.26483 -8.42018e-009 -7.36623e-007 4.21574e-007 5.6971e-007 6.19059e-007 -1.09252e-007 -2.98177e-016 5.73991e-015 7.95139e-016 -8.42018e-009 -7.36623e-007 4.21574e-007 -0.014632 -8.96768e-005 -5.63401e-006 1.98785e-016 -6.58474e-016 2.38542e-015 -8.42018e-009 -7.36623e-007 4.21574e-007 -0.0187724 -0.00117714 5.88365e-005 6.79107e-009 7.36591e-007 -4.21448e-007 -8.42018e-009 -7.36623e-007 4.21574e-007 -0.0122844 -0.00325155 0.000674526 7.34906e-009 7.36387e-007 -4.21437e-007 -8.42018e-009 -7.36623e-007 4.21574e-007 5.6971e-007 6.19059e-007 -1.09252e-007 -2.98177e-016 5.73991e-015 7.95139e-016 6.66314 -4.77604 -3.05101 79.5277 -7.85987 63.4567 -49.4135 -25.3858 110.161 7.43366 5.01797 -2.20084 1.1891e-006 -8.06579e-008 -1.93264e-007 1.1891e-006 -8.06579e-008 -1.93264e-007 1.1891e-006 -8.06578e-008 -1.93264e-007 1.1891e-006 -8.06579e-008 -1.93264e-007 0.0149987 -9.09128e-005 8.7704e-006 1.1891e-006 -8.06832e-008 -1.93255e-007 1.1891e-006 -8.06579e-008 -1.93264e-007 0.0189969 -0.00119268 -5.84049e-005 1.1891e-006 -8.06893e-008 -1.93263e-007 1.1891e-006 -8.06579e-008 -1.93264e-007 0.0122698 -0.003247 -0.000678748 1.18909e-006 -8.06717e-008 -1.9329e-007 1.1891e-006 -8.06579e-008 -1.93264e-007 1.1891e-006 -8.06579e-008 -1.93264e-007 1.1891e-006 -8.06578e-008 -1.93264e-007 -101.729 -33.1352 -88.071 176.729 45.1542 177.278 -7.16677 12.6442 -3.65563 -8.04851e-007 2.62192e-006 -1.59738e-006 101.725 -33.1408 88.0676 -176.731 45.1539 -177.281 7.16424 12.6431 3.65244 7.35216e-006 5.92973e-006 -6.4666e-006 
